<svg width="800" height="800" viewBox="0 0 800 800" xmlns="http://www.w3.org/2000/svg">
  <g fill="none" stroke="white" stroke-width="1">
    <!-- Horizontal Lines -->
    <path d="M 50 100 L 750 100" />
    <path d="M 100 200 L 700 200" />
    <path d="M 150 300 L 650 300" />
    <path d="M 200 400 L 600 400" />
    <path d="M 150 500 L 650 500" />
    <path d="M 100 600 L 700 600" />
    <path d="M 50 700 L 750 700" />
    
    <!-- Vertical Lines -->
    <path d="M 100 50 L 100 750" />
    <path d="M 200 100 L 200 700" />
    <path d="M 300 150 L 300 650" />
    <path d="M 400 200 L 400 600" />
    <path d="M 500 150 L 500 650" />
    <path d="M 600 100 L 600 700" />
    <path d="M 700 50 L 700 750" />
    
    <!-- Dots at Intersections -->
    <circle cx="100" cy="100" r="3" fill="white" />
    <circle cx="100" cy="200" r="3" fill="white" />
    <circle cx="100" cy="600" r="3" fill="white" />
    <circle cx="100" cy="700" r="3" fill="white" />
    
    <circle cx="200" cy="100" r="3" fill="white" />
    <circle cx="200" cy="200" r="3" fill="white" />
    <circle cx="200" cy="400" r="3" fill="white" />
    <circle cx="200" cy="600" r="3" fill="white" />
    <circle cx="200" cy="700" r="3" fill="white" />
    
    <circle cx="300" cy="300" r="3" fill="white" />
    <circle cx="300" cy="500" r="3" fill="white" />
    
    <circle cx="400" cy="200" r="3" fill="white" />
    <circle cx="400" cy="400" r="3" fill="white" />
    <circle cx="400" cy="600" r="3" fill="white" />
    
    <circle cx="500" cy="300" r="3" fill="white" />
    <circle cx="500" cy="500" r="3" fill="white" />
    
    <circle cx="600" cy="100" r="3" fill="white" />
    <circle cx="600" cy="200" r="3" fill="white" />
    <circle cx="600" cy="400" r="3" fill="white" />
    <circle cx="600" cy="600" r="3" fill="white" />
    <circle cx="600" cy="700" r="3" fill="white" />
    
    <circle cx="700" cy="100" r="3" fill="white" />
    <circle cx="700" cy="200" r="3" fill="white" />
    <circle cx="700" cy="600" r="3" fill="white" />
    <circle cx="700" cy="700" r="3" fill="white" />
    
    <!-- Connector Lines -->
    <path d="M 100 100 C 150 100, 150 200, 200 200" stroke-dasharray="2,2" />
    <path d="M 200 400 C 250 400, 250 300, 300 300" stroke-dasharray="2,2" />
    <path d="M 300 500 C 350 500, 350 600, 400 600" stroke-dasharray="2,2" />
    <path d="M 400 200 C 450 200, 450 300, 500 300" stroke-dasharray="2,2" />
    <path d="M 500 500 C 550 500, 550 400, 600 400" stroke-dasharray="2,2" />
    <path d="M 600 700 C 650 700, 650 600, 700 600" stroke-dasharray="2,2" />
  </g>
</svg> 